<svg width="10" height="10" viewBox="0 0 10 10" fill="none" xmlns="http://www.w3.org/2000/svg">
<path d="M2.00249 3.125H7.99749L4.99999 6.55063L2.00249 3.125ZM1.53186 3.53688L4.52936 6.96188C4.58803 7.02901 4.66037 7.08281 4.74155 7.11968C4.82272 7.15654 4.91084 7.17561 4.99999 7.17561C5.08914 7.17561 5.17726 7.15654 5.25843 7.11968C5.3396 7.08281 5.41195 7.02901 5.47061 6.96188L8.46811 3.53688C8.82186 3.1325 8.53436 2.5 7.99749 2.5H2.00249C1.88234 2.4999 1.7647 2.53443 1.66367 2.59946C1.56264 2.6645 1.48249 2.75727 1.43283 2.86668C1.38317 2.97609 1.3661 3.0975 1.38367 3.21636C1.40123 3.33522 1.45268 3.4465 1.53186 3.53688Z" fill="white"/>
</svg>
